<svg xmlns="http://www.w3.org/2000/svg" width="336" height="336"><text x="10" y="20" font-size="16">Correlation Heatmap</text><rect x="80" y="60" width="24" height="24" fill="rgb(255,0,0)" /><rect x="104" y="60" width="24" height="24" fill="rgb(100,0,154)" /><rect x="128" y="60" width="24" height="24" fill="rgb(188,0,66)" /><rect x="152" y="60" width="24" height="24" fill="rgb(85,0,169)" /><rect x="176" y="60" width="24" height="24" fill="rgb(131,0,123)" /><rect x="200" y="60" width="24" height="24" fill="rgb(146,0,108)" /><rect x="224" y="60" width="24" height="24" fill="rgb(107,0,147)" /><rect x="248" y="60" width="24" height="24" fill="rgb(127,0,127)" /><rect x="272" y="60" width="24" height="24" fill="rgb(116,0,138)" /><rect x="80" y="84" width="24" height="24" fill="rgb(100,0,154)" /><rect x="104" y="84" width="24" height="24" fill="rgb(255,0,0)" /><rect x="128" y="84" width="24" height="24" fill="rgb(34,0,220)" /><rect x="152" y="84" width="24" height="24" fill="rgb(167,0,87)" /><rect x="176" y="84" width="24" height="24" fill="rgb(130,0,124)" /><rect x="200" y="84" width="24" height="24" fill="rgb(104,0,150)" /><rect x="224" y="84" width="24" height="24" fill="rgb(191,0,63)" /><rect x="248" y="84" width="24" height="24" fill="rgb(127,0,127)" /><rect x="272" y="84" width="24" height="24" fill="rgb(127,0,127)" /><rect x="80" y="108" width="24" height="24" fill="rgb(188,0,66)" /><rect x="104" y="108" width="24" height="24" fill="rgb(34,0,220)" /><rect x="128" y="108" width="24" height="24" fill="rgb(255,0,0)" /><rect x="152" y="108" width="24" height="24" fill="rgb(78,0,176)" /><rect x="176" y="108" width="24" height="24" fill="rgb(129,0,125)" /><rect x="200" y="108" width="24" height="24" fill="rgb(151,0,103)" /><rect x="224" y="108" width="24" height="24" fill="rgb(73,0,181)" /><rect x="248" y="108" width="24" height="24" fill="rgb(127,0,127)" /><rect x="272" y="108" width="24" height="24" fill="rgb(126,0,128)" /><rect x="80" y="132" width="24" height="24" fill="rgb(85,0,169)" /><rect x="104" y="132" width="24" height="24" fill="rgb(167,0,87)" /><rect x="128" y="132" width="24" height="24" fill="rgb(78,0,176)" /><rect x="152" y="132" width="24" height="24" fill="rgb(255,0,0)" /><rect x="176" y="132" width="24" height="24" fill="rgb(130,0,124)" /><rect x="200" y="132" width="24" height="24" fill="rgb(64,0,190)" /><rect x="224" y="132" width="24" height="24" fill="rgb(149,0,105)" /><rect x="248" y="132" width="24" height="24" fill="rgb(127,0,127)" /><rect x="272" y="132" width="24" height="24" fill="rgb(123,0,131)" /><rect x="80" y="156" width="24" height="24" fill="rgb(131,0,123)" /><rect x="104" y="156" width="24" height="24" fill="rgb(130,0,124)" /><rect x="128" y="156" width="24" height="24" fill="rgb(129,0,125)" /><rect x="152" y="156" width="24" height="24" fill="rgb(130,0,124)" /><rect x="176" y="156" width="24" height="24" fill="rgb(255,0,0)" /><rect x="200" y="156" width="24" height="24" fill="rgb(125,0,129)" /><rect x="224" y="156" width="24" height="24" fill="rgb(125,0,129)" /><rect x="248" y="156" width="24" height="24" fill="rgb(127,0,127)" /><rect x="272" y="156" width="24" height="24" fill="rgb(123,0,131)" /><rect x="80" y="180" width="24" height="24" fill="rgb(146,0,108)" /><rect x="104" y="180" width="24" height="24" fill="rgb(104,0,150)" /><rect x="128" y="180" width="24" height="24" fill="rgb(151,0,103)" /><rect x="152" y="180" width="24" height="24" fill="rgb(64,0,190)" /><rect x="176" y="180" width="24" height="24" fill="rgb(125,0,129)" /><rect x="200" y="180" width="24" height="24" fill="rgb(255,0,0)" /><rect x="224" y="180" width="24" height="24" fill="rgb(114,0,140)" /><rect x="248" y="180" width="24" height="24" fill="rgb(127,0,127)" /><rect x="272" y="180" width="24" height="24" fill="rgb(128,0,126)" /><rect x="80" y="204" width="24" height="24" fill="rgb(107,0,147)" /><rect x="104" y="204" width="24" height="24" fill="rgb(191,0,63)" /><rect x="128" y="204" width="24" height="24" fill="rgb(73,0,181)" /><rect x="152" y="204" width="24" height="24" fill="rgb(149,0,105)" /><rect x="176" y="204" width="24" height="24" fill="rgb(125,0,129)" /><rect x="200" y="204" width="24" height="24" fill="rgb(114,0,140)" /><rect x="224" y="204" width="24" height="24" fill="rgb(255,0,0)" /><rect x="248" y="204" width="24" height="24" fill="rgb(127,0,127)" /><rect x="272" y="204" width="24" height="24" fill="rgb(133,0,121)" /><rect x="80" y="228" width="24" height="24" fill="rgb(127,0,127)" /><rect x="104" y="228" width="24" height="24" fill="rgb(127,0,127)" /><rect x="128" y="228" width="24" height="24" fill="rgb(127,0,127)" /><rect x="152" y="228" width="24" height="24" fill="rgb(127,0,127)" /><rect x="176" y="228" width="24" height="24" fill="rgb(127,0,127)" /><rect x="200" y="228" width="24" height="24" fill="rgb(127,0,127)" /><rect x="224" y="228" width="24" height="24" fill="rgb(127,0,127)" /><rect x="248" y="228" width="24" height="24" fill="rgb(127,0,127)" /><rect x="272" y="228" width="24" height="24" fill="rgb(127,0,127)" /><rect x="80" y="252" width="24" height="24" fill="rgb(116,0,138)" /><rect x="104" y="252" width="24" height="24" fill="rgb(127,0,127)" /><rect x="128" y="252" width="24" height="24" fill="rgb(126,0,128)" /><rect x="152" y="252" width="24" height="24" fill="rgb(123,0,131)" /><rect x="176" y="252" width="24" height="24" fill="rgb(123,0,131)" /><rect x="200" y="252" width="24" height="24" fill="rgb(128,0,126)" /><rect x="224" y="252" width="24" height="24" fill="rgb(133,0,121)" /><rect x="248" y="252" width="24" height="24" fill="rgb(127,0,127)" /><rect x="272" y="252" width="24" height="24" fill="rgb(255,0,0)" /><text x="92.0" y="50" font-size="10" text-anchor="middle" transform="rotate(-60 92.0,50)">Rented_Bike_Count</text><text x="40" y="72.0" font-size="10" text-anchor="end">Rented_Bike_Count</text><text x="116.0" y="50" font-size="10" text-anchor="middle" transform="rotate(-60 116.0,50)">Hour</text><text x="40" y="96.0" font-size="10" text-anchor="end">Hour</text><text x="140.0" y="50" font-size="10" text-anchor="middle" transform="rotate(-60 140.0,50)">Temperature_C</text><text x="40" y="120.0" font-size="10" text-anchor="end">Temperature_C</text><text x="164.0" y="50" font-size="10" text-anchor="middle" transform="rotate(-60 164.0,50)">Humidity_percent</text><text x="40" y="144.0" font-size="10" text-anchor="end">Humidity_percent</text><text x="188.0" y="50" font-size="10" text-anchor="middle" transform="rotate(-60 188.0,50)">Wind_speed_m_s</text><text x="40" y="168.0" font-size="10" text-anchor="end">Wind_speed_m_s</text><text x="212.0" y="50" font-size="10" text-anchor="middle" transform="rotate(-60 212.0,50)">Visibility_10m</text><text x="40" y="192.0" font-size="10" text-anchor="end">Visibility_10m</text><text x="236.0" y="50" font-size="10" text-anchor="middle" transform="rotate(-60 236.0,50)">Solar_Radiation_MJ_m2</text><text x="40" y="216.0" font-size="10" text-anchor="end">Solar_Radiation_MJ_m2</text><text x="260.0" y="50" font-size="10" text-anchor="middle" transform="rotate(-60 260.0,50)">Rainfall_mm</text><text x="40" y="240.0" font-size="10" text-anchor="end">Rainfall_mm</text><text x="284.0" y="50" font-size="10" text-anchor="middle" transform="rotate(-60 284.0,50)">Snowfall_cm</text><text x="40" y="264.0" font-size="10" text-anchor="end">Snowfall_cm</text></svg>
