<svg xmlns="http://www.w3.org/2000/svg" width="600" height="350"><text x="10" y="20" font-size="16">Rented Bike Count</text><rect x="0.0" y="76.7" width="28.0" height="233.3" fill="#4682B4" /><rect x="30.0" y="220.0" width="28.0" height="90.0" fill="#4682B4" /><rect x="60.0" y="156.7" width="28.0" height="153.3" fill="#4682B4" /><rect x="90.0" y="120.0" width="28.0" height="190.0" fill="#4682B4" /><rect x="120.0" y="116.7" width="28.0" height="193.3" fill="#4682B4" /><rect x="150.0" y="113.3" width="28.0" height="196.7" fill="#4682B4" /><rect x="180.0" y="40.0" width="28.0" height="270.0" fill="#4682B4" /><rect x="210.0" y="73.3" width="28.0" height="236.7" fill="#4682B4" /><rect x="240.0" y="86.7" width="28.0" height="223.3" fill="#4682B4" /><rect x="270.0" y="80.0" width="28.0" height="230.0" fill="#4682B4" /><rect x="300.0" y="136.7" width="28.0" height="173.3" fill="#4682B4" /><rect x="330.0" y="123.3" width="28.0" height="186.7" fill="#4682B4" /><rect x="360.0" y="216.7" width="28.0" height="93.3" fill="#4682B4" /><rect x="390.0" y="253.3" width="28.0" height="56.7" fill="#4682B4" /><rect x="420.0" y="260.0" width="28.0" height="50.0" fill="#4682B4" /><rect x="450.0" y="296.7" width="28.0" height="13.3" fill="#4682B4" /><rect x="480.0" y="293.3" width="28.0" height="16.7" fill="#4682B4" /><rect x="510.0" y="303.3" width="28.0" height="6.7" fill="#4682B4" /><rect x="540.0" y="303.3" width="28.0" height="6.7" fill="#4682B4" /><rect x="570.0" y="290.0" width="28.0" height="20.0" fill="#4682B4" /></svg>
