<svg xmlns="http://www.w3.org/2000/svg" width="600" height="350"><text x="10" y="20" font-size="16">Temperature (C)</text><rect x="0.0" y="306.4" width="28.0" height="3.6" fill="#4682B4" /><rect x="30.0" y="302.7" width="28.0" height="7.3" fill="#4682B4" /><rect x="60.0" y="266.2" width="28.0" height="43.8" fill="#4682B4" /><rect x="90.0" y="189.6" width="28.0" height="120.4" fill="#4682B4" /><rect x="120.0" y="91.1" width="28.0" height="218.9" fill="#4682B4" /><rect x="150.0" y="69.2" width="28.0" height="240.8" fill="#4682B4" /><rect x="180.0" y="98.4" width="28.0" height="211.6" fill="#4682B4" /><rect x="210.0" y="105.7" width="28.0" height="204.3" fill="#4682B4" /><rect x="240.0" y="109.3" width="28.0" height="200.7" fill="#4682B4" /><rect x="270.0" y="185.9" width="28.0" height="124.1" fill="#4682B4" /><rect x="300.0" y="131.2" width="28.0" height="178.8" fill="#4682B4" /><rect x="330.0" y="142.2" width="28.0" height="167.8" fill="#4682B4" /><rect x="360.0" y="76.5" width="28.0" height="233.5" fill="#4682B4" /><rect x="390.0" y="54.6" width="28.0" height="255.4" fill="#4682B4" /><rect x="420.0" y="40.0" width="28.0" height="270.0" fill="#4682B4" /><rect x="450.0" y="123.9" width="28.0" height="186.1" fill="#4682B4" /><rect x="480.0" y="156.8" width="28.0" height="153.2" fill="#4682B4" /><rect x="510.0" y="266.2" width="28.0" height="43.8" fill="#4682B4" /><rect x="540.0" y="295.4" width="28.0" height="14.6" fill="#4682B4" /><rect x="570.0" y="299.1" width="28.0" height="10.9" fill="#4682B4" /></svg>
