<svg xmlns="http://www.w3.org/2000/svg" width="600" height="350"><text x="10" y="20" font-size="16">Humidity (%)</text><rect x="0.0" y="307.6" width="28.0" height="2.4" fill="#4682B4" /><rect x="30.0" y="310.0" width="28.0" height="0.0" fill="#4682B4" /><rect x="60.0" y="307.6" width="28.0" height="2.4" fill="#4682B4" /><rect x="90.0" y="310.0" width="28.0" height="0.0" fill="#4682B4" /><rect x="120.0" y="290.5" width="28.0" height="19.5" fill="#4682B4" /><rect x="150.0" y="278.4" width="28.0" height="31.6" fill="#4682B4" /><rect x="180.0" y="241.9" width="28.0" height="68.1" fill="#4682B4" /><rect x="210.0" y="183.5" width="28.0" height="126.5" fill="#4682B4" /><rect x="240.0" y="144.6" width="28.0" height="165.4" fill="#4682B4" /><rect x="270.0" y="108.1" width="28.0" height="201.9" fill="#4682B4" /><rect x="300.0" y="59.5" width="28.0" height="250.5" fill="#4682B4" /><rect x="330.0" y="40.0" width="28.0" height="270.0" fill="#4682B4" /><rect x="360.0" y="81.4" width="28.0" height="228.6" fill="#4682B4" /><rect x="390.0" y="88.6" width="28.0" height="221.4" fill="#4682B4" /><rect x="420.0" y="188.4" width="28.0" height="121.6" fill="#4682B4" /><rect x="450.0" y="183.5" width="28.0" height="126.5" fill="#4682B4" /><rect x="480.0" y="271.1" width="28.0" height="38.9" fill="#4682B4" /><rect x="510.0" y="283.2" width="28.0" height="26.8" fill="#4682B4" /><rect x="540.0" y="297.8" width="28.0" height="12.2" fill="#4682B4" /><rect x="570.0" y="297.8" width="28.0" height="12.2" fill="#4682B4" /></svg>
