<svg xmlns="http://www.w3.org/2000/svg" width="640" height="360" viewBox="0 0 640 360">
  <rect width="640" height="360" fill="#ffffff" />
  <text x="320" y="30" text-anchor="middle" font-family="Helvetica" font-size="20">Numeric Feature Shape Snapshots</text>
  <text x="110" y="70" font-family="Helvetica" font-size="14">age</text>
  <path d="M60 120 Q110 60 160 140 Q210 220 260 150" fill="none" stroke="#3182bd" stroke-width="3" />
  <text x="110" y="220" font-family="Helvetica" font-size="14">duration</text>
  <path d="M60 270 Q120 230 150 200 Q200 210 240 300" fill="none" stroke="#3182bd" stroke-width="3" />
  <text x="380" y="70" font-family="Helvetica" font-size="14">campaign</text>
  <path d="M330 120 Q360 160 390 110 Q420 150 450 180 Q500 210 540 200" fill="none" stroke="#3182bd" stroke-width="3" />
  <text x="380" y="220" font-family="Helvetica" font-size="14">euribor3m</text>
  <path d="M330 270 Q360 250 390 200 Q420 140 450 120 Q500 180 540 240" fill="none" stroke="#3182bd" stroke-width="3" />
</svg>
